# xmcd CD database file
#
# Track frame offsets:
#	151
#	57771
#	63304
#	70732
#	97633
#	114225
#	133028
#	146006
#	171961
#	183555
#	191615
#	212433
#	215740
#	229591
#	241933
#	250145
#	267796
#	281789
#	297896
#
# Disc length: 4154 seconds
#
# Revision: 0
# Processed by: cddbd v1.5PL3 Copyright (c) Steve Scherf et al.
# Submitted via: CDex 1.40Release
#
DISCID=1a103813
DTITLE=Steve Hillage - Demo Tracks 74-78
DYEAR=1999
DGENRE=Progressive Rock
TTITLE0=Aftaglid
TTITLE1=Wait One Moment
TTITLE2=Searshing For The Spark
TTITLE3=Searching For The Spark
TTITLE4=Light In The Sky
TTITLE5=Radio
TTITLE6=Hello Down
TTITLE7=Not Fade Away
TTITLE8=Wait One Moment
TTITLE9=Do It!
TTITLE10=Octave Doctors
TTITLE11=Rainbow
TTITLE12=Sea - Nature
TTITLE13=Ether Ships
TTITLE14=Unidentified <Flying Being>
TTITLE15=Green
TTITLE16=Hardy Gurdy Man
TTITLE17=It's All Too Mach
TTITLE18=Lay Lines To Glassdom
EXTD=YEAR: 1999 ID3G: 92
EXTT0=
EXTT1=
EXTT2=
EXTT3=
EXTT4=
EXTT5=
EXTT6=
EXTT7=
EXTT8=
EXTT9=
EXTT10=
EXTT11=
EXTT12=
EXTT13=
EXTT14=
EXTT15=
EXTT16=
EXTT17=
EXTT18=
PLAYORDER=
